<?xml version='1.0' encoding='UTF-8' standalone='no'?>
<!-- Created with Fritzing (http://www.fritzing.org/) -->
<svg xmlns:svg='http://www.w3.org/2000/svg' xmlns='http://www.w3.org/2000/svg' version='1.2' baseProfile='tiny' x='0in' y='0in' width='3.43796in' height='1.8716in' viewBox='0 0 247.533 134.755' >
<g partID='59700'><g transform='translate(109.05,47.301)' ><g id="schematic">
<rect width="57.147" stroke-linecap="round" x="14.4" fill="#FFFFFF" stroke="#000000" y="14.4" stroke-width="0.8581" stroke-linejoin="round" height="58.909"/>
<g transform="matrix(1, 0, 0, 1, 35.8508, 39.7)">
<text font-size="3.5" font-family="'DroidSans'" id="label">LightBlue</text>
</g>
<g transform="matrix(1, 0, 0, 1, 39.2175, 43.2)">
<text font-size="3.5" font-family="'DroidSans'" id="label_1_">Bean</text>
</g>
<line y2="28.8" x1="0.35" x2="14.4" stroke-linecap="round" fill="none" stroke="#787878" stroke-width="0.7" stroke-linejoin="round" y1="28.8"/>
<rect width="14.4" x="0" fill="none" y="28.45" height="0.699" id="connector115pin"/>
<g width="0" x="0" fill="none" y="28.45" height="0.699" id="connector115terminal"/>
<g transform="matrix(1, 0, 0, 1, 16.6868, 29.5007)">
<text font-size="3.5" fill="#8C8C8C" font-family="'DroidSans'" id="label115">Reset</text>
</g>
<line y2="36" x1="0.35" x2="14.4" stroke-linecap="round" fill="none" stroke="#787878" stroke-width="0.7" stroke-linejoin="round" y1="36"/>
<rect width="14.4" x="0" fill="none" y="35.65" height="0.7" id="connector79pin"/>
<g width="0" x="0" fill="none" y="35.65" height="0.7" id="connector79terminal"/>
<g transform="matrix(1, 0, 0, 1, 16.6868, 36.7)">
<text font-size="3.5" fill="#8C8C8C" font-family="'DroidSans'" id="label79">A0</text>
</g>
<line y2="43.2" x1="0.35" x2="14.4" stroke-linecap="round" fill="none" stroke="#787878" stroke-width="0.7" stroke-linejoin="round" y1="43.2"/>
<rect width="14.4" x="0" fill="none" y="42.85" height="0.698" id="connector78pin"/>
<g width="0" x="0" fill="none" y="42.85" height="0.698" id="connector78terminal"/>
<g transform="matrix(1, 0, 0, 1, 16.6868, 43.9001)">
<text font-size="3.5" fill="#8C8C8C" font-family="'DroidSans'" id="label78">A1</text>
</g>
<line y2="28.8" x1="71.65" x2="86.051" stroke-linecap="round" fill="none" stroke="#787878" stroke-width="0.7" stroke-linejoin="round" y1="28.8"/>
<rect width="14.4" x="72" fill="none" y="28.45" height="0.699" id="connector77pin"/>
<g width="0" x="86.4" fill="none" y="28.45" height="0.699" id="connector77terminal"/>
<g transform="matrix(1, 0, 0, 1, 65.2664, 29.5007)">
<text font-size="3.5" fill="#8C8C8C" font-family="'DroidSans'" id="label77">D0</text>
</g>
<line y2="36" x1="71.65" x2="86.051" stroke-linecap="round" fill="none" stroke="#787878" stroke-width="0.7" stroke-linejoin="round" y1="36"/>
<rect width="14.4" x="72" fill="none" y="35.65" height="0.7" id="connector76pin"/>
<g width="0" x="86.4" fill="none" y="35.65" height="0.7" id="connector76terminal"/>
<g transform="matrix(1, 0, 0, 1, 65.2664, 36.7)">
<text font-size="3.5" fill="#8C8C8C" font-family="'DroidSans'" id="label76">D1</text>
</g>
<line y2="43.2" x1="71.65" x2="86.051" stroke-linecap="round" fill="none" stroke="#787878" stroke-width="0.7" stroke-linejoin="round" y1="43.2"/>
<rect width="14.4" x="72" fill="none" y="42.85" height="0.698" id="connector75pin"/>
<g width="0" x="86.4" fill="none" y="42.85" height="0.698" id="connector75terminal"/>
<g transform="matrix(1, 0, 0, 1, 65.2664, 43.9001)">
<text font-size="3.5" fill="#8C8C8C" font-family="'DroidSans'" id="label75">D2</text>
</g>
<line y2="50.4" x1="71.65" x2="86.051" stroke-linecap="round" fill="none" stroke="#787878" stroke-width="0.7" stroke-linejoin="round" y1="50.4"/>
<rect width="14.4" x="72" fill="none" y="50.05" height="0.7" id="connector74pin"/>
<g width="0" x="86.4" fill="none" y="50.05" height="0.7" id="connector74terminal"/>
<g transform="matrix(1, 0, 0, 1, 55.3142, 51.1003)">
<text font-size="3.5" fill="#8C8C8C" font-family="'DroidSans'" id="label74">D3/MOSI</text>
</g>
<line y2="57.6" x1="71.65" x2="86.051" stroke-linecap="round" fill="none" stroke="#787878" stroke-width="0.7" stroke-linejoin="round" y1="57.6"/>
<rect width="14.4" x="72" fill="none" y="57.25" height="0.7" id="connector73pin"/>
<g width="0" x="86.4" fill="none" y="57.25" height="0.7" id="connector73terminal"/>
<g transform="matrix(1, 0, 0, 1, 55.3142, 58.3005)">
<text font-size="3.5" fill="#8C8C8C" font-family="'DroidSans'" id="label73">D4/MISO</text>
</g>
<line y2="64.8" x1="71.65" x2="86.051" stroke-linecap="round" fill="none" stroke="#787878" stroke-width="0.7" stroke-linejoin="round" y1="64.8"/>
<rect width="14.4" x="72" fill="none" y="64.45" height="0.699" id="connector72pin"/>
<g width="0" x="86.4" fill="none" y="64.45" height="0.699" id="connector72terminal"/>
<g transform="matrix(1, 0, 0, 1, 58.0056, 65.5007)">
<text font-size="3.5" fill="#8C8C8C" font-family="'DroidSans'" id="label72">D5/SCK</text>
</g>
<line y2="14.4" x1="35.999" x2="35.999" stroke-linecap="round" fill="none" stroke="#787878" stroke-width="0.7" stroke-linejoin="round" y1="0.35"/>
<rect width="0.697" x="35.65" fill="none" y="0" height="14.399" id="connector71pin"/>
<g fill="none" points="35.65,0,36.349,0,36.349,0" id="connector71terminal"/>
<g transform="matrix(1, 0, 0, 1, 44.6, 16)">
<g>
<g transform="rotate(270)">
<g>
<g transform="matrix(1, 0, 0, 1, -6.8289, -7.2003)">
<text font-size="3.5" fill="#8C8C8C" font-family="'DroidSans'" id="label71">VCC</text>
</g>
</g>
</g>
</g>
</g>
<line y2="14.4" x1="50.4" x2="50.4" stroke-linecap="round" fill="none" stroke="#787878" stroke-width="0.7" stroke-linejoin="round" y1="0.35"/>
<rect width="0.7" x="50.05" fill="none" y="0" height="14.399" id="connector119pin"/>
<g fill="none" points="50.05,0,50.75,0,50.75,0" id="connector119terminal"/>
<g transform="matrix(1, 0, 0, 1, 51.8, 16)">
<g>
<g transform="rotate(270)">
<g>
<g transform="matrix(1, 0, 0, 1, -6.6667, 0.000549316)">
<text font-size="3.5" fill="#8C8C8C" font-family="'DroidSans'" id="label119">BAT</text>
</g>
</g>
</g>
</g>
</g>
<line y2="86.082" x1="43.2" x2="43.2" stroke-linecap="round" fill="none" stroke="#787878" stroke-width="0.6674" stroke-linejoin="round" y1="73.309"/>
<rect width="0.697" x="42.85" fill="none" y="73.309" height="13.091" id="connector114pin"/>
<g fill="none" points="42.85,86.4,43.55,86.4,43.55,86.4" id="connector114terminal"/>
<g transform="matrix(1, 0, 0, 1, 44.6, 77.6002)">
<g>
<g transform="rotate(270)">
<g>
<g transform="matrix(0.9091, 0, 0, 1, 6.3788, 0.000366211)">
<text font-size="3.5" fill="#8C8C8C" font-family="'DroidSans'" id="label114">GND</text>
</g>
</g>
</g>
</g>
</g>
<rect width="0.697" x="42.85" fill="none" y="73.309" height="13.091" id="connector120pin"/>
<g fill="none" points="42.85,86.4,43.55,86.4,43.55,86.4" id="connector120terminal"/>
<g id="unknown">
<circle cx="0" cy="0" r="0" fill="none" id="connector80pin"/>
<circle cx="0" cy="0" r="0" fill="none" id="connector81pin"/>
<circle cx="0" cy="0" r="0" fill="none" id="connector82pin"/>
<circle cx="0" cy="0" r="0" fill="none" id="connector83pin"/>
<circle cx="0" cy="0" r="0" fill="none" id="connector84pin"/>
<circle cx="0" cy="0" r="0" fill="none" id="connector85pin"/>
<circle cx="0" cy="0" r="0" fill="none" id="connector86pin"/>
<circle cx="0" cy="0" r="0" fill="none" id="connector87pin"/>
<circle cx="0" cy="0" r="0" fill="none" id="connector88pin"/>
<circle cx="0" cy="0" r="0" fill="none" id="connector89pin"/>
<circle cx="0" cy="0" r="0" fill="none" id="connector90pin"/>
<circle cx="0" cy="0" r="0" fill="none" id="connector91pin"/>
<circle cx="0" cy="0" r="0" fill="none" id="connector92pin"/>
<circle cx="0" cy="0" r="0" fill="none" id="connector93pin"/>
<circle cx="0" cy="0" r="0" fill="none" id="connector94pin"/>
<circle cx="0" cy="0" r="0" fill="none" id="connector95pin"/>
<circle cx="0" cy="0" r="0" fill="none" id="connector96pin"/>
<circle cx="0" cy="0" r="0" fill="none" id="connector97pin"/>
<circle cx="0" cy="0" r="0" fill="none" id="connector98pin"/>
<circle cx="0" cy="0" r="0" fill="none" id="connector99pin"/>
<circle cx="0" cy="0" r="0" fill="none" id="connector100pin"/>
<circle cx="0" cy="0" r="0" fill="none" id="connector101pin"/>
<circle cx="0" cy="0" r="0" fill="none" id="connector102pin"/>
<circle cx="0" cy="0" r="0" fill="none" id="connector103pin"/>
<circle cx="0" cy="0" r="0" fill="none" id="connector104pin"/>
<circle cx="0" cy="0" r="0" fill="none" id="connector105pin"/>
<circle cx="0" cy="0" r="0" fill="none" id="connector106pin"/>
<circle cx="0" cy="0" r="0" fill="none" id="connector107pin"/>
<circle cx="0" cy="0" r="0" fill="none" id="connector108pin"/>
<circle cx="0" cy="0" r="0" fill="none" id="connector109pin"/>
<circle cx="0" cy="0" r="0" fill="none" id="connector110pin"/>
<circle cx="0" cy="0" r="0" fill="none" id="connector111pin"/>
<circle cx="0" cy="0" r="0" fill="none" id="connector112pin"/>
<circle cx="0" cy="0" r="0" fill="none" id="connector113pin"/>
</g>
</g>
</g></g><g partID='61080'><g transform='translate(214.026,25.3509)' ><g transform='matrix(0,1,-1,0,0,0)'  ><g xmlns="http://www.w3.org/2000/svg" id="schematic">
<line y2="22.176" x1="11.15" class="other" x2="11.15" xmlns="http://www.w3.org/2000/svg" stroke-linecap="round" stroke="#000000" stroke-width="1.152" y1="0.576"/>
<line y2="14.976" x1="14.75" class="other" x2="14.75" xmlns="http://www.w3.org/2000/svg" stroke-linecap="round" stroke="#000000" stroke-width="1.152" y1="7.776"/>
<line y2="22.176" x1="18.3501" class="other" x2="18.3501" xmlns="http://www.w3.org/2000/svg" stroke-linecap="round" stroke="#000000" stroke-width="1.152" y1="0.576"/>
<line y2="14.976" x1="21.9501" class="other" x2="21.9501" xmlns="http://www.w3.org/2000/svg" stroke-linecap="round" stroke="#000000" stroke-width="1.152" y1="7.776"/>
<line y2="11.376" x1="7.55002" class="other" x2="10.43" xmlns="http://www.w3.org/2000/svg" stroke-linecap="round" stroke="#000000" stroke-width="0.432002" y1="11.376"/>
<line y2="11.376" x1="29.1502" class="pin" x2="21.9501" connectorname="-" xmlns="http://www.w3.org/2000/svg" stroke-linecap="round" stroke="#787878" stroke-width="0.700001" id="connector0pin" y1="11.376"/>
<g width="0.000283466" class="terminal" xmlns="http://www.w3.org/2000/svg" x="29.1502" stroke="none" fill="none" y="11.376" height="0.000283465" stroke-width="0" id="connector0terminal"/>
<text text-anchor="middle" class="text" font-size="2.50001" xmlns="http://www.w3.org/2000/svg" stroke="none" fill="#8c8c8c" x="25.5501" y="10.326" font-family="'Droid Sans'" stroke-width="0">1</text>
<line y2="11.376" x1="0.350001" class="pin" x2="7.55002" connectorname="+" xmlns="http://www.w3.org/2000/svg" stroke-linecap="round" stroke="#787878" stroke-width="0.700001" id="connector1pin" y1="11.376"/>
<g width="0.000283466" class="terminal" xmlns="http://www.w3.org/2000/svg" x="0.350001" stroke="none" fill="none" y="11.376" height="0.000283465" stroke-width="0" id="connector1terminal"/>
<text text-anchor="middle" class="text" font-size="2.50001" xmlns="http://www.w3.org/2000/svg" stroke="none" fill="#8c8c8c" x="3.95001" y="10.326" font-family="'Droid Sans'" stroke-width="0">2</text>
</g>
</g></g></g><g partID='61280'><g transform='translate(15.0999,61.3409)' ><g xmlns="http://www.w3.org/2000/svg" id="schematic">
<rect width="57.6" class="interior rect" xmlns="http://www.w3.org/2000/svg" x="7.54999" stroke="none" fill="#ffffff" y="0.36" height="50.4" stroke-width="0"/>
<text text-anchor="middle" class="text" font-size="4.25001" xmlns="http://www.w3.org/2000/svg" stroke="none" fill="#000000" x="36.3501" y="23.2933" font-family="'Droid Sans'" stroke-width="0" id="label">RMCM01</text>
<line y2="0.36" x1="7.54999" class="other" x2="65.15" xmlns="http://www.w3.org/2000/svg" stroke-linecap="round" stroke="#000000" stroke-width="0.9" y1="0.36"/>
<line y2="50.76" x1="65.15" class="other" x2="65.15" xmlns="http://www.w3.org/2000/svg" stroke-linecap="round" stroke="#000000" stroke-width="0.9" y1="0.36"/>
<line y2="50.76" x1="65.15" class="other" x2="7.54999" xmlns="http://www.w3.org/2000/svg" stroke-linecap="round" stroke="#000000" stroke-width="0.9" y1="50.76"/>
<line y2="0.36" x1="7.54999" class="other" x2="7.54999" xmlns="http://www.w3.org/2000/svg" stroke-linecap="round" stroke="#000000" stroke-width="0.9" y1="50.76"/>
<line y2="7.56" x1="0.349999" class="pin" x2="7.54999" connectorname="FPLS" xmlns="http://www.w3.org/2000/svg" stroke-linecap="round" stroke="#787878" stroke-width="0.699998" id="connector5pin" y1="7.56"/>
<g width="0.000283464" class="terminal" xmlns="http://www.w3.org/2000/svg" x="0.349999" stroke="none" fill="none" y="7.56" height="0.000283465" stroke-width="0" id="connector5terminal"/>
<text text-anchor="middle" class="text" font-size="2.5" xmlns="http://www.w3.org/2000/svg" stroke="none" fill="#8c8c8c" x="3.94999" y="6.50999" font-family="'Droid Sans'" stroke-width="0">6</text>
<text text-anchor="start" class="text" font-size="3.49999" xmlns="http://www.w3.org/2000/svg" stroke="none" fill="#787878" x="9.64998" y="8.25999" font-family="'Droid Sans'" stroke-width="0">FPLS</text>
<line y2="14.76" x1="0.349999" class="pin" x2="7.54999" connectorname="HR" xmlns="http://www.w3.org/2000/svg" stroke-linecap="round" stroke="#787878" stroke-width="0.699998" id="connector4pin" y1="14.76"/>
<g width="0.000283464" class="terminal" xmlns="http://www.w3.org/2000/svg" x="0.349999" stroke="none" fill="none" y="14.76" height="0.000283465" stroke-width="0" id="connector4terminal"/>
<text text-anchor="middle" class="text" font-size="2.5" xmlns="http://www.w3.org/2000/svg" stroke="none" fill="#8c8c8c" x="3.94999" y="13.71" font-family="'Droid Sans'" stroke-width="0">5</text>
<text text-anchor="start" class="text" font-size="3.49999" xmlns="http://www.w3.org/2000/svg" stroke="none" fill="#787878" x="9.64998" y="15.46" font-family="'Droid Sans'" stroke-width="0">HR</text>
<line y2="21.96" x1="0.349999" class="pin" x2="7.54999" connectorname="OSC" xmlns="http://www.w3.org/2000/svg" stroke-linecap="round" stroke="#787878" stroke-width="0.699998" id="connector3pin" y1="21.96"/>
<g width="0.000283464" class="terminal" xmlns="http://www.w3.org/2000/svg" x="0.349999" stroke="none" fill="none" y="21.96" height="0.000283465" stroke-width="0" id="connector3terminal"/>
<text text-anchor="middle" class="text" font-size="2.5" xmlns="http://www.w3.org/2000/svg" stroke="none" fill="#8c8c8c" x="3.94999" y="20.91" font-family="'Droid Sans'" stroke-width="0">4</text>
<text text-anchor="start" class="text" font-size="3.49999" xmlns="http://www.w3.org/2000/svg" stroke="none" fill="#787878" x="9.64998" y="22.66" font-family="'Droid Sans'" stroke-width="0">OSC</text>
<line y2="29.16" x1="0.349999" class="pin" x2="7.54999" connectorname="F32KIN" xmlns="http://www.w3.org/2000/svg" stroke-linecap="round" stroke="#787878" stroke-width="0.699998" id="connector2pin" y1="29.16"/>
<g width="0.000283464" class="terminal" xmlns="http://www.w3.org/2000/svg" x="0.349999" stroke="none" fill="none" y="29.16" height="0.000283465" stroke-width="0" id="connector2terminal"/>
<text text-anchor="middle" class="text" font-size="2.5" xmlns="http://www.w3.org/2000/svg" stroke="none" fill="#8c8c8c" x="3.94999" y="28.11" font-family="'Droid Sans'" stroke-width="0">3</text>
<text text-anchor="start" class="text" font-size="3.49999" xmlns="http://www.w3.org/2000/svg" stroke="none" fill="#787878" x="9.64998" y="29.8599" font-family="'Droid Sans'" stroke-width="0">F32KIN</text>
<line y2="36.36" x1="0.349999" class="pin" x2="7.54999" connectorname="OSC_ON" xmlns="http://www.w3.org/2000/svg" stroke-linecap="round" stroke="#787878" stroke-width="0.699998" id="connector1pin" y1="36.36"/>
<g width="0.000283464" class="terminal" xmlns="http://www.w3.org/2000/svg" x="0.349999" stroke="none" fill="none" y="36.36" height="0.000283465" stroke-width="0" id="connector1terminal"/>
<text text-anchor="middle" class="text" font-size="2.5" xmlns="http://www.w3.org/2000/svg" stroke="none" fill="#8c8c8c" x="3.94999" y="35.31" font-family="'Droid Sans'" stroke-width="0">2</text>
<text text-anchor="start" class="text" font-size="3.49999" xmlns="http://www.w3.org/2000/svg" stroke="none" fill="#787878" x="9.64998" y="37.0599" font-family="'Droid Sans'" stroke-width="0">OSC_ON</text>
<line y2="43.56" x1="0.349999" class="pin" x2="7.54999" connectorname="VCC" xmlns="http://www.w3.org/2000/svg" stroke-linecap="round" stroke="#787878" stroke-width="0.699998" id="connector0pin" y1="43.56"/>
<g width="0.000283464" class="terminal" xmlns="http://www.w3.org/2000/svg" x="0.349999" stroke="none" fill="none" y="43.56" height="0.000283465" stroke-width="0" id="connector0terminal"/>
<text text-anchor="middle" class="text" font-size="2.5" xmlns="http://www.w3.org/2000/svg" stroke="none" fill="#8c8c8c" x="3.94999" y="42.51" font-family="'Droid Sans'" stroke-width="0">1</text>
<text text-anchor="start" class="text" font-size="3.49999" xmlns="http://www.w3.org/2000/svg" stroke="none" fill="#787878" x="9.64998" y="44.2599" font-family="'Droid Sans'" stroke-width="0">VCC</text>
<line y2="43.56" x1="72.35" class="pin" x2="65.15" connectorname="GND" xmlns="http://www.w3.org/2000/svg" stroke-linecap="round" stroke="#787878" stroke-width="0.699998" id="connector10pin" y1="43.56"/>
<g width="0.000283464" class="terminal" xmlns="http://www.w3.org/2000/svg" x="72.35" stroke="none" fill="none" y="43.56" height="0.000283465" stroke-width="0" id="connector10terminal"/>
<text text-anchor="middle" class="text" font-size="2.5" xmlns="http://www.w3.org/2000/svg" stroke="none" fill="#8c8c8c" x="68.75" y="42.51" font-family="'Droid Sans'" stroke-width="0">11</text>
<text text-anchor="end" class="text" font-size="3.49999" xmlns="http://www.w3.org/2000/svg" stroke="none" fill="#787878" x="63.0499" y="44.2599" font-family="'Droid Sans'" stroke-width="0">GND</text>
<line y2="29.16" x1="72.35" class="pin" x2="65.15" connectorname="LX1" xmlns="http://www.w3.org/2000/svg" stroke-linecap="round" stroke="#787878" stroke-width="0.699998" id="connector9pin" y1="29.16"/>
<g width="0.000283464" class="terminal" xmlns="http://www.w3.org/2000/svg" x="72.35" stroke="none" fill="none" y="29.16" height="0.000283465" stroke-width="0" id="connector9terminal"/>
<text text-anchor="middle" class="text" font-size="2.5" xmlns="http://www.w3.org/2000/svg" stroke="none" fill="#8c8c8c" x="68.75" y="28.11" font-family="'Droid Sans'" stroke-width="0">10</text>
<text text-anchor="end" class="text" font-size="3.49999" xmlns="http://www.w3.org/2000/svg" stroke="none" fill="#787878" x="63.0499" y="29.8599" font-family="'Droid Sans'" stroke-width="0">LX1</text>
<line y2="21.96" x1="72.35" class="pin" x2="65.15" connectorname="LX2" xmlns="http://www.w3.org/2000/svg" stroke-linecap="round" stroke="#787878" stroke-width="0.699998" id="connector8pin" y1="21.96"/>
<g width="0.000283464" class="terminal" xmlns="http://www.w3.org/2000/svg" x="72.35" stroke="none" fill="none" y="21.96" height="0.000283465" stroke-width="0" id="connector8terminal"/>
<text text-anchor="middle" class="text" font-size="2.5" xmlns="http://www.w3.org/2000/svg" stroke="none" fill="#8c8c8c" x="68.75" y="20.91" font-family="'Droid Sans'" stroke-width="0">9</text>
<text text-anchor="end" class="text" font-size="3.49999" xmlns="http://www.w3.org/2000/svg" stroke="none" fill="#787878" x="63.0499" y="22.66" font-family="'Droid Sans'" stroke-width="0">LX2</text>
<line y2="14.76" x1="72.35" class="pin" x2="65.15" connectorname="WIDB_DET" xmlns="http://www.w3.org/2000/svg" stroke-linecap="round" stroke="#787878" stroke-width="0.699998" id="connector7pin" y1="14.76"/>
<g width="0.000283464" class="terminal" xmlns="http://www.w3.org/2000/svg" x="72.35" stroke="none" fill="none" y="14.76" height="0.000283465" stroke-width="0" id="connector7terminal"/>
<text text-anchor="middle" class="text" font-size="2.5" xmlns="http://www.w3.org/2000/svg" stroke="none" fill="#8c8c8c" x="68.75" y="13.71" font-family="'Droid Sans'" stroke-width="0">8</text>
<text text-anchor="end" class="text" font-size="3.49999" xmlns="http://www.w3.org/2000/svg" stroke="none" fill="#787878" x="63.0499" y="15.46" font-family="'Droid Sans'" stroke-width="0">WIDB_DET</text>
<line y2="7.56" x1="72.35" class="pin" x2="65.15" connectorname="RESET" xmlns="http://www.w3.org/2000/svg" stroke-linecap="round" stroke="#787878" stroke-width="0.699998" id="connector6pin" y1="7.56"/>
<g width="0.000283464" class="terminal" xmlns="http://www.w3.org/2000/svg" x="72.35" stroke="none" fill="none" y="7.56" height="0.000283465" stroke-width="0" id="connector6terminal"/>
<text text-anchor="middle" class="text" font-size="2.5" xmlns="http://www.w3.org/2000/svg" stroke="none" fill="#8c8c8c" x="68.75" y="6.50999" font-family="'Droid Sans'" stroke-width="0">7</text>
<text text-anchor="end" class="text" font-size="3.49999" xmlns="http://www.w3.org/2000/svg" stroke="none" fill="#787878" x="63.0499" y="8.25999" font-family="'Droid Sans'" stroke-width="0">RESET</text>
</g>
</g></g><g partID='62730'><g transform='translate(87.0155,0)' ><g transform='matrix(0,1,-1,0,0,0)'  ><g id="schematic">
<path d="M36.565,22.3l-3.603,0c-0.192,0,-0.35,-0.156,-0.35,-0.35c0,-0.195,0.156,-0.353,0.35,-0.353l3.603,0c0.192,0,0.351,0.156,0.351,0.353C36.916,22.144,36.759,22.3,36.565,22.3z"/>
<path d="M32.964,22.3l-3.598,0c-0.193,0,-0.352,-0.156,-0.352,-0.35c0,-0.195,0.156,-0.353,0.352,-0.353l3.598,0c0.193,0,0.35,0.156,0.35,0.353C33.313,22.144,33.158,22.3,32.964,22.3z"/>
<polygon fill="#FFFFFF" points="32.964,21.951,29.367,14.75,32.964,14.75,36.565,14.75"/>
<path d="M32.964,22.732L28.8,14.399l8.332,0L32.964,22.732zM29.933,15.1l3.031,6.067L36,15.1L29.933,15.1z"/>
<path d="M32.964,22.175c-0.125,0,-0.225,-0.103,-0.225,-0.225l0,-7.2c0,-0.124,0.1,-0.226,0.225,-0.226c0.123,0,0.225,0.102,0.225,0.226l0,7.201C33.188,22.073,33.087,22.175,32.964,22.175z"/>
<path d="M39.923,23.073c-0.059,0,-0.115,-0.021,-0.159,-0.063l-2.341,-2.34c-0.088,-0.088,-0.088,-0.23,0,-0.318c0.089,-0.088,0.229,-0.088,0.318,0l2.34,2.34c0.088,0.088,0.088,0.23,0,0.318C40.039,23.052,39.981,23.073,39.923,23.073z"/>
<path d="M39.563,26.314c-0.058,0,-0.114,-0.021,-0.157,-0.063l-2.341,-2.34c-0.089,-0.089,-0.089,-0.23,0,-0.318c0.088,-0.088,0.229,-0.088,0.317,0l2.34,2.34c0.088,0.088,0.088,0.23,0,0.318C39.679,26.292,39.621,26.314,39.563,26.314z"/>
<path d="M39.024,23.39l1.438,-1.438l1.08,2.521L39.024,23.39z"/>
<path d="M38.666,26.628l1.438,-1.439l1.08,2.521L38.666,26.628z"/>
<path d="M22.166,22.3l-3.6,0c-0.193,0,-0.35,-0.156,-0.35,-0.35c0,-0.195,0.157,-0.353,0.35,-0.353l3.6,0c0.192,0,0.35,0.156,0.35,0.353C22.515,22.144,22.358,22.3,22.166,22.3z"/>
<path d="M18.566,22.3l-3.601,0c-0.193,0,-0.35,-0.156,-0.35,-0.35c0,-0.195,0.157,-0.353,0.35,-0.353l3.601,0c0.193,0,0.35,0.156,0.35,0.353C18.916,22.144,18.759,22.3,18.566,22.3z"/>
<polygon fill="#FFFFFF" points="18.566,21.951,14.965,14.75,18.566,14.75,22.166,14.75"/>
<path d="M18.566,22.732l-4.167,-8.333l8.333,0L18.566,22.732zM15.531,15.1l3.035,6.067l3.033,-6.067L15.531,15.1z"/>
<path d="M18.566,22.175c-0.124,0,-0.225,-0.103,-0.225,-0.225l0,-7.2c0,-0.124,0.101,-0.226,0.225,-0.226s0.225,0.102,0.225,0.226l0,7.201C18.791,22.073,18.69,22.175,18.566,22.175z"/>
<path d="M18.566,15.1c-0.193,0,-0.35,-0.157,-0.35,-0.35l0,-7.2c0,-0.193,0.157,-0.35,0.35,-0.35s0.35,0.156,0.35,0.35l0,7.2C18.916,14.943,18.759,15.1,18.566,15.1z"/>
<path d="M14.967,7.55L14.967,7.55L14.967,7.55z" fill="none"/>
<path d="M25.524,23.073c-0.058,0,-0.114,-0.021,-0.157,-0.063l-2.343,-2.34c-0.088,-0.088,-0.088,-0.23,0,-0.318s0.229,-0.088,0.317,0l2.342,2.34c0.089,0.088,0.089,0.23,0,0.318C25.64,23.052,25.582,23.073,25.524,23.073z"/>
<path d="M25.164,26.314c-0.06,0,-0.115,-0.021,-0.16,-0.063l-2.34,-2.34c-0.088,-0.089,-0.088,-0.23,0,-0.318s0.229,-0.088,0.317,0l2.34,2.34c0.089,0.088,0.089,0.23,0,0.318C25.278,26.292,25.221,26.314,25.164,26.314z"/>
<path d="M24.623,23.39l1.438,-1.438l1.08,2.521L24.623,23.39z"/>
<path d="M24.266,26.628l1.438,-1.439l1.078,2.521L24.266,26.628z"/>
<path d="M7.766,22.3L4.165,22.3c-0.193,0,-0.35,-0.156,-0.35,-0.35c0,-0.195,0.157,-0.353,0.35,-0.353l3.601,0c0.193,0,0.35,0.156,0.35,0.353C8.116,22.144,7.959,22.3,7.766,22.3z"/>
<path d="M4.165,22.3L0.566,22.3c-0.193,0,-0.35,-0.156,-0.35,-0.35c0,-0.195,0.157,-0.353,0.35,-0.353l3.599,0c0.193,0,0.35,0.156,0.35,0.353C4.515,22.144,4.359,22.3,4.165,22.3z"/>
<polygon fill="#FFFFFF" points="4.165,21.951,0.566,14.75,4.165,14.75,7.766,14.75"/>
<path d="M4.165,22.732L0,14.4l8.333,0L4.165,22.732zM1.133,15.1l3.033,6.067L7.2,15.1L1.133,15.1z"/>
<path d="M4.165,22.175c-0.124,0,-0.225,-0.103,-0.225,-0.225l0,-7.2c0,-0.124,0.101,-0.226,0.225,-0.226S4.39,14.626,4.39,14.75l0,7.201C4.39,22.073,4.289,22.175,4.165,22.175z"/>
<path d="M32.964,15.1c-0.193,0,-0.35,-0.157,-0.35,-0.35L32.614,7.9L4.514,7.9l0,6.851c0,0.192,-0.157,0.35,-0.35,0.35s-0.35,-0.157,-0.35,-0.35L3.814,7.2l29.499,0l0,7.55C33.313,14.943,33.158,15.1,32.964,15.1z"/>
<path d="M11.123,23.073c-0.058,0,-0.115,-0.021,-0.159,-0.063l-2.339,-2.34c-0.088,-0.088,-0.088,-0.23,0,-0.318s0.23,-0.088,0.318,0l2.339,2.34c0.088,0.088,0.088,0.23,0,0.318C11.238,23.052,11.18,23.073,11.123,23.073z"/>
<path d="M10.764,26.314c-0.058,0,-0.115,-0.021,-0.159,-0.063l-2.341,-2.34c-0.088,-0.089,-0.088,-0.23,0,-0.318c0.088,-0.088,0.23,-0.088,0.318,0l2.341,2.34c0.088,0.088,0.088,0.23,0,0.318C10.879,26.292,10.821,26.314,10.764,26.314z"/>
<path d="M10.224,23.39l1.439,-1.438l1.08,2.521L10.224,23.39z"/>
<path d="M9.866,26.628l1.438,-1.439l1.08,2.521L9.866,26.628z"/>
<g>
<path d="M32.964,29.5c-0.193,0,-0.35,-0.156,-0.35,-0.351l0,-7.198c0,-0.193,0.155,-0.353,0.35,-0.353c0.193,0,0.35,0.156,0.35,0.353l0,7.198C33.313,29.343,33.158,29.5,32.964,29.5z" fill="#787878" id="connector3pin"/>
<g width="0.75" x="18.163" fill="none" y="27.167" height="2.397" id="connector2terminal"/>
<path d="M18.566,29.5c-0.193,0,-0.35,-0.156,-0.35,-0.351l0,-7.198c0,-0.193,0.157,-0.353,0.35,-0.353s0.35,0.156,0.35,0.353l0,7.198C18.916,29.343,18.759,29.5,18.566,29.5z" fill="#787878" id="connector2pin"/>
<path d="M4.165,29.5c-0.193,0,-0.35,-0.156,-0.35,-0.351l0,-7.198c0,-0.193,0.157,-0.353,0.35,-0.353s0.35,0.156,0.35,0.353l0,7.198C4.515,29.343,4.359,29.5,4.165,29.5z" fill="#787878" id="connector0pin"/>
<path d="M18.567,7.9c-0.193,0,-0.35,-0.156,-0.35,-0.35l0,-7.2c0,-0.193,0.157,-0.35,0.35,-0.35s0.35,0.156,0.35,0.35l0,7.2C18.917,7.744,18.76,7.9,18.567,7.9z" fill="#787878" id="connector1pin"/>
<g width="0.75" x="18.205" fill="none" y="0" height="2.398" id="connector1terminal"/>
<g width="0.75" x="3.726" fill="none" y="27.167" height="2.397" id="connector0terminal"/>
<g width="0.75" x="32.664" fill="none" y="27.167" height="2.397" id="connector3terminal"/>
</g>
<g transform="matrix(1, 0, 0, 1, 34.1509, 12.8435)">
<text font-size="4.2315" fill="#787878" font-family="'OCRAStd'">B</text>
</g>
<g transform="matrix(1, 0, 0, 1, 5.1924, 12.8435)">
<text font-size="4.2315" fill="#787878" font-family="'OCRAStd'">R</text>
</g>
<g transform="matrix(1, 0, 0, 1, 20.0259, 12.8435)">
<text font-size="4.2315" fill="#787878" font-family="'OCRAStd'">G</text>
</g>
</g>
</g></g></g><g partID='64990'><line stroke-linecap='round' stroke='#404040' x1='87.45' y1='133.701' x2='87.45' y2='104.901' stroke-width='0.699998' /></g><g partID='63620'><line stroke-linecap='round' stroke='#404040' x1='152.25' y1='133.701' x2='87.45' y2='133.701' stroke-width='0.699998' /></g><g partID='63690'><line stroke-linecap='round' stroke='#404040' x1='145.049' y1='47.301' x2='1.05' y2='47.301' stroke-width='0.699998' /></g><g partID='64610'><line stroke-linecap='round' stroke='#404040' x1='1.05' y1='104.901' x2='15.45' y2='104.901' stroke-width='0.699998' /></g><g partID='64230'><line stroke-linecap='round' stroke='#404040' x1='1.05' y1='47.301' x2='1.05' y2='104.901' stroke-width='0.699998' /></g><g partID='65860'><line stroke-linecap='round' stroke='#404040' x1='202.65' y1='54.5012' x2='203.203' y2='60.0042' stroke-width='0.699998' /></g><g partID='66160'><line stroke-linecap='round' stroke='#404040' x1='202.65' y1='133.701' x2='202.65' y2='133.701' stroke-width='0.699998' /></g><g partID='65880'><line stroke-linecap='round' stroke='#404040' x1='203.203' y1='60.0042' x2='202.65' y2='133.701' stroke-width='0.699998' /></g><g partID='65900'><line stroke-linecap='round' stroke='#404040' x1='202.65' y1='133.701' x2='152.25' y2='133.701' stroke-width='0.699998' /></g><g partID='65980'><line stroke-linecap='round' stroke='#404040' x1='152.25' y1='133.701' x2='152.25' y2='133.701' stroke-width='0.699998' /></g><g partID='66430'><line stroke-linecap='round' stroke='#404040' x1='202.65' y1='25.701' x2='202.65' y2='25.701' stroke-width='0.699998' /></g><g partID='66450'><line stroke-linecap='round' stroke='#404040' x1='202.65' y1='25.701' x2='202.65' y2='4.101' stroke-width='0.699998' /></g><g partID='66470'><line stroke-linecap='round' stroke='#404040' x1='202.65' y1='4.101' x2='202.65' y2='4.101' stroke-width='0.699998' /></g><g partID='66490'><line stroke-linecap='round' stroke='#404040' x1='202.65' y1='4.101' x2='159.45' y2='4.301' stroke-width='0.699998' /></g><g partID='66530'><line stroke-linecap='round' stroke='#404040' x1='159.45' y1='4.301' x2='159.45' y2='47.301' stroke-width='0.699998' /></g><circle  fill="black" cx="159.45" cy="4.301" r="1.44" stroke-width="0" stroke="none" /><g partID='66550'><line stroke-linecap='round' stroke='#404040' x1='159.45' y1='47.301' x2='159.45' y2='47.301' stroke-width='0.699998' /></g><g partID='66890'><line stroke-linecap='round' stroke='#404040' x1='159.45' y1='4.301' x2='85.8165' y2='18.58' stroke-width='0.699998' /></g><g partID='59700' id='partLabel'><g transform='translate(104.25,52.901)' ><g font-size='5' font-style='normal' font-weight='normal' fill='#000000' font-family="'DroidSans'" id='schematicLabel' fill-opacity='1' stroke='none' ><text x='0' y='3.75'>LightBlue Bean</text></g></g></g><g partID='61080' id='partLabel'><g transform='translate(173.133,18.8582)' ><g font-size='5' font-style='normal' font-weight='normal' fill='#000000' font-family="'DroidSans'" id='schematicLabel' fill-opacity='1' stroke='none' ><text x='0' y='3.75'>LiPo battery 1000mAh</text></g></g></g><g partID='61280' id='partLabel'><g transform='translate(20.5997,51.7409)' ><g font-size='5' font-style='normal' font-weight='normal' fill='#000000' font-family="'DroidSans'" id='schematicLabel' fill-opacity='1' stroke='none' ><text x='0' y='3.75'>Heart rate monitor</text></g></g></g><g partID='62730' id='partLabel'><g transform='translate(93.002,0.386512)' ><g font-size='5' font-style='normal' font-weight='normal' fill='#000000' font-family="'DroidSans'" id='schematicLabel' fill-opacity='1' stroke='none' ><text x='0' y='3.75'>LED2</text></g></g></g></svg>